<svg width="407" height="165" viewBox="0 0 407 165" fill="none" xmlns="http://www.w3.org/2000/svg">
<path d="M162.701 55.9356C163.315 57.1306 163.901 58.5174 163.441 59.7892C163.063 60.8581 162.044 61.5379 161.113 62.1792C153.981 67.0799 148.3 74.0691 144.964 82.0615C144.964 82.0615 145.003 82.3904 145.09 82.9495C145.518 85.7671 146.925 94.5434 148.569 98.2271C150.535 102.651 153.871 116.081 152.272 118.175C150.683 120.264 130.295 127.258 112.284 130.136C94.2783 133.009 75.0512 131.896 73.8735 129.139C72.7067 126.376 72.8108 111.317 71.7974 108.259C70.795 105.205 71.5126 99.762 71.5126 99.762C63.6081 103.243 54.5095 101.796 46.008 100.283C43.3293 99.8058 40.1193 98.8575 39.4894 96.2043C39.095 94.5214 39.9495 92.8385 40.6671 91.2762C42.4419 87.4171 43.5265 83.24 43.8388 79.0081C44.1565 74.7488 43.7785 70.1935 45.9477 66.5317C47.843 63.3414 51.294 61.4776 54.1754 59.1314C57.1224 56.7249 59.56 53.688 61.2801 50.2894C61.7566 49.352 62.2113 48.3379 63.0987 47.7678C63.9039 47.2635 64.9009 47.2196 65.8485 47.1538C69.5625 46.8743 73.2709 45.8492 76.3933 43.8319C79.3184 41.9297 81.652 39.2437 84.4292 37.1332C87.201 35.0118 90.7725 33.455 94.1304 34.3595C96.7433 35.0666 98.8687 37.1497 101.547 37.5224C106.488 38.2076 110.635 32.8356 115.614 33.2028C118.912 33.4385 121.53 36.1575 124.757 36.892C129.385 37.939 133.899 34.7432 138.632 34.4198C144.849 33.9867 150.3 38.4927 154.304 43.2728C157.569 47.1648 160.395 51.4186 162.707 55.9465L162.701 55.9356Z" fill="white"/>
<path d="M90.652 132.269C81.4438 132.269 74.2789 131.233 73.4572 129.303C72.8108 127.785 72.5588 123.125 72.2904 118.186C72.0658 114.058 71.8358 109.788 71.3702 108.39C70.5594 105.934 70.8114 102.092 70.9758 100.458C62.8358 103.72 53.4797 102.059 45.9203 100.716C43.3074 100.25 39.7523 99.2905 39.0457 96.303C38.6349 94.5762 39.4292 92.8714 40.1248 91.3694L40.2563 91.0844C42.0202 87.2527 43.0719 83.1797 43.3841 78.9698C43.4499 78.0598 43.4882 77.1443 43.5211 76.2179C43.6525 72.8083 43.7895 69.2781 45.5533 66.296C46.983 63.8786 49.2782 62.2012 51.5022 60.5786C52.2965 59.9975 53.1182 59.4 53.8796 58.7806C56.7718 56.4234 59.1876 53.414 60.8692 50.0865L60.9678 49.8947C61.417 49.0012 61.921 47.987 62.8522 47.395C63.6958 46.8633 64.6653 46.792 65.6075 46.7208L65.8047 46.7043C69.7268 46.4083 73.2983 45.2846 76.1413 43.4482C77.8011 42.3738 79.302 41.0033 80.7591 39.6767C81.8382 38.69 82.9557 37.6704 84.1444 36.7659C86.1602 35.2311 90.159 32.8191 94.2454 33.9209C95.467 34.2498 96.5844 34.8693 97.6636 35.4668C98.9728 36.1958 100.211 36.8811 101.602 37.0729C103.985 37.4018 106.187 36.2342 108.515 34.9899C110.761 33.7949 113.084 32.5505 115.642 32.7424C117.559 32.8794 119.246 33.8058 120.878 34.7048C122.149 35.401 123.469 36.1246 124.855 36.437C127.485 37.0291 130.065 36.2013 132.804 35.3188C134.677 34.7158 136.616 34.0909 138.594 33.9538C143.902 33.5811 149.319 36.6125 154.649 42.9658C157.936 46.8797 160.779 51.1719 163.101 55.7218C163.797 57.0812 164.372 58.5394 163.868 59.9317C163.446 61.1103 162.373 61.8449 161.431 62.4972C154.375 67.343 148.722 74.2884 145.424 82.1108C145.605 83.3661 147.161 93.9678 148.974 98.0352C150.711 101.933 154.518 115.966 152.628 118.438C150.847 120.762 129.862 127.768 112.35 130.564C105.141 131.715 97.3513 132.263 90.652 132.263V132.269ZM71.5071 99.3015C71.6002 99.3015 71.6988 99.3344 71.7755 99.3892C71.907 99.4879 71.9727 99.6469 71.9508 99.8058C71.9453 99.8606 71.2551 105.183 72.2247 108.105C72.7232 109.618 72.9478 113.757 73.1888 118.131C73.4298 122.555 73.7037 127.571 74.2844 128.947C75.1937 131.096 92.9253 132.756 112.207 129.681C130.267 126.798 150.431 119.836 151.916 117.896C153.252 116.147 150.311 103.248 148.152 98.408C146.18 93.9842 144.586 82.5987 144.521 82.1163C144.51 82.0341 144.521 81.9573 144.553 81.8806C147.906 73.8553 153.696 66.7236 160.861 61.801C161.798 61.1596 162.701 60.5402 163.025 59.6302C163.414 58.5558 162.904 57.3115 162.302 56.1274C160.006 51.6379 157.202 47.4005 153.959 43.5414C148.826 37.4238 143.666 34.4965 138.654 34.8473C136.786 34.9789 134.896 35.5874 133.072 36.1739C130.339 37.051 127.518 37.961 124.653 37.3141C123.146 36.9743 121.771 36.2178 120.446 35.4887C118.83 34.6007 117.296 33.762 115.576 33.6359C113.27 33.4714 111.166 34.5897 108.937 35.7792C106.587 37.0346 104.144 38.3228 101.482 37.9555C99.9259 37.7417 98.5564 36.9797 97.2308 36.2452C96.201 35.6751 95.1328 35.0831 94.0099 34.7816C90.285 33.7729 86.571 36.0369 84.6867 37.4731C83.5309 38.3557 82.4298 39.3588 81.3617 40.3346C79.8827 41.6831 78.3489 43.0809 76.6288 44.1937C73.6654 46.1123 69.9459 47.2854 65.8759 47.5869L65.6787 47.6033C64.8461 47.6636 63.9916 47.7239 63.3397 48.1405C62.6221 48.5955 62.1949 49.4562 61.7785 50.2839L61.6799 50.4812C59.9435 53.9238 57.4456 57.0319 54.4547 59.4713C53.6769 60.1071 52.8443 60.7101 52.0445 61.2967C49.8972 62.8645 47.6787 64.487 46.3366 66.7455C44.6878 69.5302 44.5564 72.9399 44.4304 76.2399C44.392 77.1718 44.3592 78.1037 44.288 79.0246C43.9648 83.3387 42.8856 87.5213 41.078 91.4462L40.9465 91.7367C40.2782 93.1729 39.588 94.6639 39.9276 96.0892C40.5138 98.5615 43.7237 99.4056 46.0847 99.8277C53.7426 101.187 63.2795 102.881 71.3318 99.3289C71.3921 99.3015 71.4523 99.2905 71.5126 99.2905L71.5071 99.3015Z" fill="black"/>
<path d="M73.6599 47.5924C69.316 55.5189 73.1834 64.6131 78.1846 71.2022C79.7184 73.2249 81.3946 75.1271 83.131 76.9854C83.5035 77.3856 84.0568 76.8045 83.7226 76.3934C80.3154 72.2656 76.7111 68.1708 74.5802 63.1988C72.5425 58.4462 71.9399 52.7068 74.2351 47.9268C74.4159 47.5485 73.8736 47.2196 73.6654 47.5924H73.6599Z" fill="black"/>
<path d="M87.0531 81.6942C88.3349 83.9033 89.4415 86.2111 90.5918 88.486C91.167 89.6262 91.7586 90.7555 92.3283 91.8957C92.8596 92.9591 93.2923 94.2419 94.0373 95.1628C94.355 95.552 94.9138 95.1244 94.8207 94.7078C94.6837 94.0938 94.3167 93.5183 94.0428 92.9591C93.7799 92.4274 93.5115 91.8957 93.2376 91.3694C92.6515 90.2347 92.0598 89.1055 91.4299 87.9982C90.1645 85.7781 88.7567 83.6566 87.4256 81.4749C87.2832 81.2392 86.9162 81.453 87.0586 81.6887L87.0531 81.6942Z" fill="black"/>
<path d="M72.7834 98.3477C72.1151 97.3555 72.9258 96.144 73.9228 95.8042C75.095 95.4095 76.4316 95.7 77.6258 95.8316C80.0525 96.0947 82.4846 96.2701 84.9277 96.3633C89.8467 96.5551 94.7822 96.44 99.6849 96.0179C109.408 95.1847 119.032 93.1784 128.273 90.0264C133.434 88.2668 138.676 86.2605 143.436 83.5799C143.924 83.3058 143.496 82.6206 143.003 82.8399C138.249 84.9668 133.565 87.143 128.635 88.8533C123.771 90.5417 118.802 91.9121 113.763 92.9646C103.684 95.0586 93.3361 95.8535 83.0598 95.2889C81.5972 95.2066 80.1401 95.1025 78.6775 94.9764C77.3136 94.8613 75.8893 94.5762 74.5254 94.7462C73.4627 94.8777 72.4712 95.3656 71.9727 96.3523C71.5619 97.1691 71.5783 98.09 72.2247 98.7698C72.4931 99.0493 72.9916 98.6821 72.767 98.3477H72.7834Z" fill="black"/>
<path d="M139.114 82.4616C140.084 79.9236 141.015 77.4294 142.461 75.1106C143.891 72.8193 145.66 70.7801 147.632 68.9437C148.125 68.4832 147.402 67.7816 146.898 68.2091C144.789 70.0236 143.014 72.2108 141.579 74.5953C140.171 76.9306 138.922 79.5782 138.501 82.2917C138.44 82.6919 138.961 82.8399 139.109 82.4616H139.114Z" fill="black"/>
<path d="M150.327 64.7118C152.107 62.0696 153.652 59.3562 154.83 56.3851C155.416 54.916 155.914 53.414 156.336 51.8955C156.747 50.41 157.251 48.8038 157.278 47.2525C157.289 46.6988 156.517 46.6385 156.353 47.1264C155.86 48.5681 155.668 50.1304 155.257 51.5995C154.846 53.0796 154.359 54.5377 153.811 55.9739C152.704 58.8628 151.362 61.7352 149.73 64.3664C149.494 64.7502 150.081 65.0846 150.327 64.7173V64.7118Z" fill="black"/>
<path d="M138.966 36.2781C143.502 41.1294 141.913 48.6284 139.541 54.0608C138.144 57.2567 136.479 60.3264 135.192 63.5716C133.877 66.8935 132.864 70.2977 131.987 73.7567C131.012 77.6048 130.344 81.5297 129.966 85.4821C129.911 86.0412 130.782 86.0357 130.832 85.4821C131.56 78.0324 133.423 70.7965 136.397 63.9279C139.07 57.7555 143.354 51.4954 143.146 44.5116C143.047 41.1897 141.946 38.0487 139.487 35.7518C139.141 35.4284 138.643 35.9272 138.966 36.2726V36.2781Z" fill="black"/>
<path d="M122.018 88.3271C121.076 84.6653 121.662 80.7842 122.462 77.1553C123.267 73.5154 124.176 69.9249 124.675 66.2248C125.633 59.1204 125.567 51.7694 123.382 44.8844C122.231 41.261 120.555 37.7088 118.244 34.6829C117.844 34.1621 116.951 34.65 117.345 35.2091C121.388 40.943 123.661 47.5924 124.253 54.5761C124.57 58.3091 124.384 62.1189 123.831 65.8191C123.278 69.5138 122.21 73.0714 121.393 76.7113C120.511 80.6417 120.035 84.6269 121.355 88.508C121.497 88.9301 122.133 88.7601 122.023 88.3216L122.018 88.3271Z" fill="black"/>
<path d="M100.539 39.6768C99.5972 43.0864 99.8547 46.4631 100.731 49.8618C101.619 53.3098 102.961 56.6263 103.908 60.0578C105.82 66.9812 104.976 74.0746 104.801 81.146C104.708 84.9887 104.845 88.9027 105.869 92.6302C106.006 93.1346 106.779 92.9208 106.653 92.4165C104.971 85.6081 105.82 78.6847 106.045 71.7723C106.154 68.4503 106.127 65.0681 105.557 61.7846C104.949 58.2543 103.618 54.9324 102.572 51.5228C101.449 47.8445 100.512 43.7277 101.257 39.8796C101.345 39.4136 100.671 39.2163 100.539 39.6822V39.6768Z" fill="black"/>
<path d="M105.738 76.2782C106.883 72.5781 107.31 68.5874 107.299 64.7228C107.288 60.8636 107.009 56.8181 105.782 53.1344C105.595 52.5807 104.801 52.8055 104.911 53.3756C105.639 57.147 106.395 60.8581 106.423 64.7228C106.45 68.5874 105.919 72.3478 105.179 76.1247C105.108 76.4865 105.628 76.64 105.738 76.2782Z" fill="black"/>
<path d="M105.086 47.5101C104.801 46.1452 104.774 44.6651 104.818 43.2782C104.861 41.8749 105.075 40.4771 105.437 39.1231C105.623 38.4105 104.522 38.109 104.336 38.8216C103.958 40.2797 103.76 41.7708 103.766 43.2782C103.766 44.8022 104.062 46.2219 104.445 47.691C104.555 48.1131 105.179 47.9322 105.091 47.5101H105.086Z" fill="black"/>
<path d="M54.619 62.3875C55.6817 65.1284 56.2898 68.1159 56.969 70.9719C57.6209 73.7238 58.2892 76.4811 59.2587 79.1397C60.1516 81.601 61.3074 83.9855 62.9069 86.0631C64.501 88.1352 66.5223 89.7578 68.7572 91.1008C71.3099 92.6302 74.0542 93.8417 76.7712 95.0422C77.1875 95.2286 77.5491 94.6146 77.1328 94.4228C72.4493 92.3068 67.7603 90.01 64.3914 85.9919C60.8856 81.8093 59.5984 76.355 58.2453 71.2022C57.8455 69.6728 57.4565 68.1379 56.9635 66.6359C56.4541 65.09 55.8187 63.6429 55.1504 62.1628C55.0189 61.8668 54.4985 62.0806 54.619 62.3875Z" fill="black"/>
<path d="M72.4602 96.0837C69.9733 95.6562 67.4535 95.4917 64.9611 95.0641C62.4578 94.6311 59.9709 93.9678 57.6812 92.8605C53.7536 90.9583 50.4833 87.9105 48.9441 83.7663C48.703 83.114 47.6677 83.3716 47.8814 84.0568C49.2508 88.3545 52.8114 91.7586 56.7664 93.754C61.4444 96.1166 67.2016 97.1417 72.4 96.5606C72.6465 96.5332 72.756 96.1385 72.4657 96.0837H72.4602Z" fill="black"/>
<path d="M42.924 94.0445C44.1181 96.451 46.3695 98.1449 48.9989 98.6985C49.5576 98.8136 49.7931 97.953 49.2344 97.8379C46.8625 97.361 44.6824 95.8206 43.4115 93.7595C43.2198 93.447 42.7597 93.7211 42.924 94.0445Z" fill="black"/>
<path d="M46.3203 93.9678C46.9173 94.5927 47.5747 95.1738 48.2977 95.6452C49.0153 96.1166 49.8096 96.5661 50.6313 96.8018C51.0531 96.9224 51.3598 96.2591 50.938 96.0728C50.1821 95.7329 49.4207 95.4369 48.7031 95.0148C47.9965 94.5927 47.3227 94.1322 46.7092 93.5786C46.4463 93.3429 46.0683 93.7101 46.3203 93.9678Z" fill="black"/>
<path d="M78.6885 92.8659C77.812 92.2794 76.9684 91.6435 76.0865 91.0625C75.2101 90.4814 74.3227 89.9113 73.4298 89.3522C72.9642 89.0616 72.5479 89.7852 73.0025 90.0867C73.8845 90.6623 74.7719 91.2214 75.6702 91.7751C76.5631 92.3287 77.4943 92.8276 78.3927 93.3703C78.7159 93.5676 78.9952 93.0743 78.6885 92.8659Z" fill="black"/>
<path d="M69.672 86.3646C67.4426 84.3254 65.5472 81.7654 64.1449 79.0958C62.6933 76.3276 61.9867 73.4497 61.417 70.4018C61.3239 69.9194 60.5296 70.0291 60.557 70.5169C60.7213 73.6032 61.8607 76.7387 63.2904 79.4576C64.7968 82.3191 66.8016 84.6982 69.2776 86.7593C69.5515 86.9841 69.9459 86.6113 69.672 86.3646Z" fill="black"/>
<path d="M76.3933 48.8038C75.977 51.8243 75.988 54.8557 76.4645 57.8706C76.9356 60.8636 77.7518 64.0321 79.2418 66.6962C79.4718 67.1018 80.1949 66.8277 80.0141 66.3673C78.9186 63.5771 77.8668 60.8691 77.341 57.9035C76.8151 54.9324 76.6946 51.8846 76.952 48.8806C76.9794 48.5681 76.4371 48.4859 76.3933 48.8038Z" fill="black"/>
<path d="M79.6964 56.8345C79.806 58.1721 79.9703 59.5041 80.2277 60.8198C80.3592 61.4776 80.529 62.1244 80.7153 62.7658C80.896 63.4071 81.0658 64.0978 81.3616 64.6953C81.5588 65.09 82.1504 64.8105 82.0518 64.4048C81.893 63.7635 81.6136 63.1331 81.4219 62.4972C81.2411 61.9051 81.0823 61.3022 80.9289 60.6992C80.6057 59.4274 80.3428 58.1392 80.1949 56.8345C80.1565 56.5166 79.6635 56.5056 79.6909 56.8345H79.6964Z" fill="black"/>
<path d="M80.8851 60.0907C81.1206 60.6334 81.3617 61.1761 81.5972 61.7243C81.8327 62.267 82.0519 62.8206 82.3696 63.3194C82.4846 63.5003 82.7037 63.5826 82.9009 63.4949C83.0817 63.4126 83.2186 63.1934 83.1474 62.9905C82.9447 62.4095 82.6325 61.8668 82.3422 61.3241C82.0573 60.7978 81.7725 60.2661 81.4876 59.7399C81.4 59.5754 81.1699 59.5206 81.0111 59.6138C80.8303 59.7179 80.8084 59.9208 80.8851 60.0907Z" fill="black"/>
<path d="M145.359 43.9799C145.485 48.3488 144.071 52.4547 141.782 56.1274C141.464 56.6372 142.242 57.0758 142.581 56.5934C145.129 52.959 146.131 48.3653 145.901 43.9799C145.885 43.6346 145.353 43.6291 145.364 43.9799H145.359Z" fill="black"/>
<path d="M147.298 49.6096C147.008 50.717 146.569 51.7804 146.06 52.8055C145.808 53.3043 145.54 53.7977 145.244 54.2746C144.948 54.7625 144.543 55.2175 144.296 55.7273C144.104 56.1329 144.57 56.5166 144.915 56.2096C145.348 55.8259 145.655 55.2449 145.945 54.7515C146.252 54.2362 146.526 53.71 146.772 53.1618C147.26 52.0709 147.594 50.9307 147.851 49.7631C147.933 49.4013 147.386 49.2424 147.292 49.6096H147.298Z" fill="black"/>
<path d="M148.574 52.5588C148.295 53.0686 147.999 53.5674 147.692 54.0608C147.391 54.5541 147.117 55.0694 146.838 55.5792C146.728 55.7821 146.788 56.0397 146.991 56.1603C147.177 56.2699 147.468 56.2151 147.572 56.0068C147.835 55.486 148.103 54.9708 148.339 54.439C148.574 53.9073 148.815 53.3756 149.084 52.8548C149.253 52.5204 148.76 52.2244 148.574 52.5588Z" fill="black"/>
<path d="M74.6459 127.538C77.1219 128.251 79.7677 128.514 82.3258 128.727C85.0154 128.958 87.716 129.034 90.411 128.98C93.0623 128.925 95.708 128.733 98.3429 128.409C100.934 128.086 103.645 127.768 106.143 126.995C106.669 126.831 106.439 126.118 105.924 126.189C103.245 126.579 100.616 127.203 97.9211 127.516C95.3849 127.812 92.8267 127.987 90.2741 128.031C87.716 128.075 85.1578 127.998 82.6106 127.79C79.9758 127.582 77.3629 127.127 74.7281 126.907C74.3611 126.875 74.3063 127.439 74.6459 127.532V127.538Z" fill="black"/>
<path d="M114.371 125.828C117.625 125.866 120.84 125.669 124.045 125.093C127.189 124.528 130.448 123.75 133.373 122.44C133.833 122.237 133.505 121.492 133.034 121.634C130.004 122.55 127.041 123.525 123.924 124.123C120.785 124.726 117.575 125.12 114.376 125.203C113.976 125.214 113.976 125.822 114.376 125.828H114.371Z" fill="black"/>
<path d="M73.3312 122.566C74.613 123.202 76.1523 123.432 77.5601 123.597C79.0062 123.766 80.5345 123.865 81.9752 123.64C82.5229 123.553 82.375 122.698 81.8492 122.692C80.4359 122.676 79.05 122.747 77.6368 122.593C76.2454 122.445 74.8979 122.062 73.512 121.886C73.1504 121.842 73.019 122.412 73.3257 122.566H73.3312Z" fill="black"/>
<path d="M73.1943 119.595C73.8571 119.913 74.624 120.006 75.3416 120.138C76.0318 120.264 76.7274 120.351 77.4231 120.434C78.8967 120.603 80.3702 120.713 81.8547 120.658C82.4517 120.636 82.4463 119.765 81.8547 119.732C80.4304 119.655 79.0062 119.606 77.5875 119.469C76.8808 119.403 76.1742 119.31 75.4676 119.222C74.7774 119.134 74.0598 118.953 73.3641 118.986C73.0683 119.003 72.8875 119.447 73.1998 119.595H73.1943Z" fill="black"/>
<path d="M72.7944 116.536C75.2977 117.199 78.0093 117.314 80.5838 117.09C81.1699 117.04 81.1918 116.141 80.5838 116.158C79.2965 116.196 78.0093 116.213 76.7165 116.174C75.4347 116.136 74.1529 116.021 72.8711 115.955C72.5315 115.939 72.4712 116.454 72.7944 116.542V116.536Z" fill="black"/>
<path d="M73.9393 113.428C75.7908 113.505 77.6477 113.68 79.5047 113.664C80.1073 113.664 80.1073 112.743 79.5047 112.726C77.6532 112.666 75.7908 112.792 73.9393 112.819C73.5449 112.825 73.5503 113.411 73.9393 113.428Z" fill="black"/>
<path d="M75.6922 111.148C76.0647 111.158 76.4317 111.169 76.8042 111.175C77.1931 111.186 77.5984 111.23 77.9819 111.153C78.1846 111.115 78.3106 110.884 78.2832 110.693C78.2503 110.468 78.0805 110.358 77.8723 110.325C77.6861 110.298 77.4998 110.325 77.3191 110.336C77.1438 110.347 76.963 110.364 76.7877 110.375C76.4262 110.402 76.0647 110.429 75.6977 110.462C75.5224 110.479 75.3471 110.61 75.358 110.802C75.369 110.989 75.5059 111.137 75.6977 111.142L75.6922 111.148Z" fill="black"/>
<path d="M77.1931 110.177C77.697 110.073 78.201 109.969 78.6994 109.843C78.9514 109.777 79.1322 109.481 79.05 109.229C78.9679 108.977 78.7049 108.801 78.4365 108.878C77.9435 109.026 77.456 109.191 76.9685 109.355C76.7548 109.426 76.596 109.651 76.6727 109.881C76.7494 110.111 76.963 110.227 77.1985 110.177H77.1931Z" fill="black"/>
<path d="M144.143 86.562C141.656 87.6254 139.169 88.6944 136.594 89.5276C134.064 90.3498 131.489 90.8542 128.903 91.4407C128.46 91.5449 128.547 92.3068 129.013 92.252C131.703 91.9395 134.392 91.1611 136.95 90.3115C139.53 89.4508 142.072 88.4258 144.422 87.0498C144.745 86.858 144.46 86.4194 144.137 86.562H144.143Z" fill="black"/>
<path d="M141.601 90.3608C138.846 91.5723 135.986 92.537 133.127 93.4689C132.617 93.6334 132.826 94.4282 133.351 94.2802C136.32 93.447 139.141 92.2356 141.902 90.8761C142.253 90.7061 141.946 90.2128 141.601 90.3608Z" fill="black"/>
<path d="M142.165 93.5402C140.484 94.1048 138.796 94.6475 137.126 95.256C136.89 95.3437 136.731 95.5684 136.802 95.8261C136.863 96.0508 137.137 96.2372 137.372 96.1495C139.043 95.5191 140.681 94.8284 142.335 94.1541C142.702 94.0007 142.565 93.4086 142.165 93.5402Z" fill="black"/>
<path d="M142.603 95.8919C141.36 96.3743 140.056 96.747 138.862 97.3555C138.385 97.5967 138.72 98.4189 139.229 98.2326C140.489 97.7721 141.65 97.0759 142.855 96.4949C143.184 96.3359 142.954 95.7548 142.603 95.8919Z" fill="black"/>
<path d="M143.091 97.8762C142.768 97.9859 142.439 98.101 142.116 98.1997C141.76 98.3148 141.393 98.4025 141.075 98.6053C140.878 98.7314 140.79 98.9671 140.883 99.1864C140.976 99.4111 141.201 99.4988 141.431 99.455C141.798 99.3892 142.132 99.1973 142.466 99.0384C142.779 98.8904 143.091 98.7533 143.403 98.6108C143.589 98.5286 143.639 98.2709 143.567 98.101C143.491 97.9256 143.283 97.7995 143.091 97.8653V97.8762Z" fill="black"/>
<path d="M108.181 92.3671C108.597 87.2417 110.016 82.4507 112.004 77.7309C112.196 77.2814 111.44 76.9689 111.216 77.3965C108.844 81.9628 107.699 87.2472 107.518 92.3616C107.502 92.7892 108.143 92.7782 108.175 92.3616L108.181 92.3671Z" fill="black"/>
<path d="M110.476 90.7171C110.673 89.7852 110.991 88.8643 111.402 88.0037C111.824 87.1321 112.377 86.3537 112.952 85.5807C113.248 85.1806 112.596 84.6817 112.267 85.049C110.903 86.562 110.147 88.6395 109.956 90.6459C109.928 90.9419 110.416 91.0077 110.476 90.7171Z" fill="black"/>
<path d="M113.478 89.1713C113.741 88.8424 114.004 88.5244 114.272 88.201C114.552 87.8611 114.847 87.5268 115.083 87.154C115.193 86.9786 115.132 86.7374 114.973 86.6168C114.82 86.4962 114.563 86.4907 114.426 86.6497C114.135 86.9841 113.9 87.3623 113.653 87.7296C113.423 88.0804 113.193 88.4312 112.958 88.7766C112.864 88.9136 112.919 89.1055 113.04 89.1987C113.16 89.2919 113.368 89.3028 113.472 89.1713H113.478Z" fill="black"/>
<path d="M97.5705 93.0797C97.1925 91.6106 96.6447 90.1854 96.1462 88.7601C95.6478 87.3239 95.1109 85.9042 94.596 84.4734C94.3824 83.8924 93.4457 84.15 93.6648 84.7311C94.2071 86.1837 94.7385 87.6364 95.2972 89.0836C95.8504 90.4978 96.3544 91.945 97.0227 93.3155C97.1761 93.6279 97.6581 93.4086 97.5705 93.0852V93.0797Z" fill="black"/>
<path d="M92.0982 93.7321C91.3532 92.7344 90.6246 91.7257 89.8687 90.7336C89.5017 90.2512 89.1347 89.7688 88.7567 89.2973C88.3623 88.7985 87.9898 88.2503 87.5242 87.8118C87.1846 87.4939 86.6258 87.8995 86.8723 88.3161C87.1901 88.8533 87.6228 89.3193 88.0172 89.8017C88.4116 90.2895 88.8115 90.7664 89.2168 91.2434C90.0221 92.1972 90.8492 93.1291 91.6599 94.0719C91.8626 94.3076 92.2899 93.9897 92.0982 93.7321Z" fill="black"/>
<path d="M90.4001 93.5512C89.792 93.14 89.184 92.7234 88.576 92.3068C87.9734 91.8902 87.3708 91.4517 86.7245 91.1118C86.5054 90.9967 86.2205 91.057 86.0945 91.2763C85.9576 91.512 86.0617 91.7586 86.2589 91.9067C86.8395 92.3452 87.4968 92.7125 88.1268 93.0797C88.7622 93.4525 89.3921 93.8253 90.0221 94.2035C90.4439 94.4557 90.8054 93.8198 90.4055 93.5512H90.4001Z" fill="black"/>
<path d="M172.665 77.2704H180.033C182.032 77.2704 183.577 77.7693 184.656 78.7724C185.735 79.7756 186.277 81.1351 186.277 82.8508C186.277 84.0623 185.982 85.0326 185.384 85.7616C184.787 86.4907 183.944 87.0169 182.854 87.3404V87.4939C184.125 87.7954 185.132 88.349 185.872 89.1493C186.611 89.9497 186.978 91.0734 186.978 92.5316C186.978 93.4196 186.831 94.2254 186.54 94.9435C186.244 95.6616 185.834 96.2811 185.297 96.8073C184.76 97.3336 184.114 97.7392 183.358 98.0188C182.602 98.3038 181.747 98.4409 180.794 98.4409H172.671V77.2649L172.665 77.2704ZM179.058 86.3098C180.131 86.3098 180.92 86.1179 181.435 85.7342C181.95 85.3505 182.207 84.6817 182.207 83.7334V82.7302C182.207 81.7819 181.95 81.1131 181.435 80.7294C180.92 80.3457 180.126 80.1538 179.058 80.1538H176.543V86.3153H179.058V86.3098ZM179.573 95.563C180.685 95.563 181.517 95.3547 182.076 94.9435C182.629 94.5269 182.909 93.8143 182.909 92.8057V91.8025C182.909 90.8103 182.629 90.1086 182.076 89.692C181.517 89.2754 180.685 89.0726 179.573 89.0726H176.543V95.563H179.573ZM197.885 98.8136C196.63 98.8136 195.518 98.6218 194.549 98.238C193.579 97.8543 192.763 97.3061 192.106 96.599C191.448 95.8919 190.95 95.0367 190.605 94.0336C190.26 93.0304 190.09 91.9066 190.09 90.6513C190.09 89.396 190.265 88.2339 190.621 87.2252C190.977 86.2166 191.476 85.356 192.122 84.6488C192.769 83.9417 193.552 83.3935 194.472 83.0098C195.392 82.6261 196.428 82.4342 197.578 82.4342C198.728 82.4342 199.731 82.6206 200.64 82.9988C201.549 83.3716 202.322 83.9088 202.957 84.594C203.593 85.2847 204.086 86.1179 204.425 87.0882C204.77 88.064 204.94 89.1384 204.94 90.3169V91.5942H193.963V91.9889C193.963 93.1236 194.313 94.039 195.025 94.7352C195.732 95.4314 196.723 95.7822 197.994 95.7822C198.964 95.7822 199.797 95.5849 200.498 95.1902C201.193 94.7955 201.774 94.2748 202.24 93.6279L204.453 95.8316C203.888 96.6538 203.061 97.361 201.982 97.942C200.903 98.5231 199.534 98.8191 197.874 98.8191L197.885 98.8136ZM197.611 85.2792C196.521 85.2792 195.639 85.6246 194.976 86.3208C194.308 87.0115 193.974 87.9324 193.974 89.0726V89.2864H201.067V89.0123C201.067 87.8721 200.761 86.9621 200.142 86.2934C199.523 85.6191 198.679 85.2847 197.611 85.2847V85.2792ZM208.89 98.4463V82.7905H212.768V85.5533H212.921C213.266 84.7037 213.798 83.9691 214.515 83.3551C215.233 82.7357 216.23 82.4287 217.501 82.4287C219.035 82.4287 220.283 82.9385 221.248 83.9581C222.206 84.9777 222.688 86.4414 222.688 88.3435V98.4463H218.81V88.8698C218.81 86.6003 217.829 85.4656 215.868 85.4656C215.463 85.4656 215.08 85.515 214.718 85.6191C214.357 85.7233 214.028 85.8767 213.732 86.0905C213.436 86.3043 213.206 86.562 213.036 86.8635C212.867 87.1704 212.779 87.5322 212.779 87.9598V98.4518H208.901L208.89 98.4463ZM227.777 95.4149H232.932V85.8274H227.777V82.796H236.81V95.4149H241.603V98.4463H227.777V95.4149ZM234.871 80.3676C233.962 80.3676 233.321 80.1757 232.948 79.792C232.576 79.4083 232.389 78.9424 232.389 78.3942V77.6651C232.389 77.1169 232.576 76.6565 232.948 76.2673C233.321 75.8836 233.962 75.6917 234.871 75.6917C235.78 75.6917 236.421 75.8836 236.794 76.2673C237.166 76.651 237.352 77.1169 237.352 77.6651V78.3942C237.352 78.9424 237.166 79.4083 236.794 79.792C236.421 80.1757 235.78 80.3676 234.871 80.3676ZM257.856 98.4463C256.908 98.4463 256.174 98.2106 255.659 97.7337C255.144 97.2568 254.837 96.5935 254.733 95.7439H254.58C254.295 96.7141 253.742 97.4706 252.915 98.0023C252.088 98.5395 251.063 98.8081 249.853 98.8081C248.275 98.8081 247.021 98.3915 246.095 97.5638C245.164 96.736 244.698 95.5794 244.698 94.1048C244.698 90.9473 247.015 89.3741 251.638 89.3741H254.399V88.3435C254.399 87.3513 254.158 86.6058 253.671 86.096C253.183 85.5917 252.4 85.3395 251.304 85.3395C250.313 85.3395 249.513 85.5314 248.91 85.9151C248.302 86.2988 247.787 86.7977 247.366 87.4007L245.153 85.5204C245.64 84.6488 246.424 83.9198 247.503 83.3223C248.582 82.7248 249.984 82.4287 251.704 82.4287C253.764 82.4287 255.38 82.9111 256.541 83.8704C257.702 84.8297 258.283 86.2605 258.283 88.1626V95.5355H260.134V98.4463H257.861H257.856ZM251.156 96.144C252.088 96.144 252.86 95.9248 253.473 95.4917C254.092 95.0586 254.399 94.4666 254.399 93.7156V91.6216H251.731C249.612 91.6216 248.549 92.2904 248.549 93.6224V94.2309C248.549 94.8558 248.779 95.3327 249.245 95.6561C249.71 95.9796 250.346 96.144 251.156 96.144ZM262.309 98.4463V82.7905H265.525V84.9449H265.705C265.946 84.2596 266.297 83.6676 266.752 83.1688C267.206 82.6754 267.847 82.4233 268.674 82.4233C269.501 82.4233 270.088 82.648 270.553 83.1085C271.019 83.5635 271.32 84.2048 271.463 85.0326H271.616C271.879 84.3254 272.268 83.7115 272.783 83.1962C273.298 82.6809 274.032 82.4233 274.979 82.4233C276.13 82.4233 276.962 82.8399 277.466 83.6676C277.97 84.4954 278.222 85.7233 278.222 87.3404V98.4463H275.039V87.7954C275.039 86.8854 274.914 86.2495 274.662 85.8822C274.41 85.5204 274.032 85.3341 273.522 85.3341C273.057 85.3341 272.668 85.4875 272.355 85.789C272.043 86.0905 271.884 86.5565 271.884 87.1869V98.4409H268.669V87.7899C268.669 86.8799 268.548 86.244 268.307 85.8767C268.066 85.515 267.688 85.3286 267.184 85.3286C266.68 85.3286 266.302 85.4821 265.985 85.7836C265.672 86.0851 265.514 86.551 265.514 87.1814V98.4354H262.298L262.309 98.4463ZM282.352 95.4149H287.507V85.8274H282.352V82.796H291.385V95.4149H296.178V98.4463H282.352V95.4149ZM289.446 80.3676C288.537 80.3676 287.896 80.1757 287.523 79.792C287.151 79.4083 286.965 78.9424 286.965 78.3942V77.6651C286.965 77.1169 287.151 76.6565 287.523 76.2673C287.896 75.8836 288.537 75.6917 289.446 75.6917C290.355 75.6917 290.996 75.8836 291.369 76.2673C291.741 76.651 291.928 77.1169 291.928 77.6651V78.3942C291.928 78.9424 291.741 79.4083 291.369 79.792C290.996 80.1757 290.355 80.3676 289.446 80.3676ZM299.843 98.4463V82.7905H303.721V85.5533H303.875C304.22 84.7037 304.751 83.9691 305.469 83.3551C306.186 82.7357 307.183 82.4287 308.454 82.4287C309.988 82.4287 311.237 82.9385 312.201 83.9581C313.159 84.9777 313.641 86.4414 313.641 88.3435V98.4463H309.763V88.8698C309.763 86.6003 308.783 85.4656 306.822 85.4656C306.416 85.4656 306.033 85.515 305.671 85.6191C305.31 85.7233 304.981 85.8767 304.685 86.0905C304.39 86.3043 304.159 86.562 303.99 86.8635C303.82 87.1704 303.732 87.5322 303.732 87.9598V98.4518H299.854L299.843 98.4463ZM324.855 98.8136C323.66 98.8136 322.598 98.6218 321.656 98.238C320.713 97.8543 319.919 97.3061 319.262 96.599C318.604 95.8919 318.1 95.0312 317.744 94.0226C317.388 93.014 317.213 91.8792 317.213 90.6239C317.213 89.3686 317.388 88.2394 317.744 87.2252C318.095 86.2166 318.604 85.356 319.262 84.6488C319.919 83.9417 320.719 83.3935 321.656 83.0098C322.598 82.6261 323.66 82.4342 324.855 82.4342C326.049 82.4342 327.089 82.6261 328.037 83.0098C328.985 83.3935 329.79 83.9417 330.447 84.6488C331.105 85.356 331.609 86.2166 331.965 87.2252C332.321 88.2394 332.496 89.3686 332.496 90.6239C332.496 91.8792 332.321 93.0085 331.965 94.0226C331.609 95.0367 331.105 95.8919 330.447 96.599C329.79 97.3061 328.985 97.8543 328.037 98.238C327.084 98.6218 326.027 98.8136 324.855 98.8136ZM324.855 95.837C325.967 95.837 326.843 95.4972 327.489 94.8229C328.136 94.1432 328.459 93.151 328.459 91.8354V89.407C328.459 88.0914 328.136 87.0937 327.489 86.4194C326.843 85.7397 325.961 85.4053 324.855 85.4053C323.748 85.4053 322.861 85.7452 322.214 86.4194C321.568 87.0992 321.245 88.0914 321.245 89.407V91.8354C321.245 93.151 321.568 94.1487 322.214 94.8229C322.861 95.5027 323.743 95.837 324.855 95.837ZM341.288 85.4601V75.9932H344.805V85.4601H341.288ZM361.172 98.8136C359.452 98.8136 357.968 98.545 356.713 98.0078C355.459 97.4706 354.478 96.747 353.772 95.837L356.045 93.7759C356.691 94.4831 357.436 95.0312 358.275 95.4149C359.113 95.7987 360.088 95.9905 361.2 95.9905C362.169 95.9905 362.947 95.8316 363.533 95.5027C364.119 95.1792 364.415 94.6859 364.415 94.0171C364.415 93.4525 364.218 93.0688 363.824 92.8659C363.429 92.6631 362.909 92.5151 362.262 92.411L359.748 92.0163C359.102 91.9176 358.472 91.7696 357.853 91.5777C357.234 91.3859 356.691 91.1173 356.215 90.7719C355.738 90.4266 355.36 89.988 355.076 89.4508C354.791 88.9136 354.654 88.2613 354.654 87.4939C354.654 85.8548 355.267 84.5995 356.489 83.7334C357.71 82.8618 359.392 82.4287 361.539 82.4287C363.057 82.4287 364.344 82.6425 365.407 83.0646C366.469 83.4867 367.34 84.0842 368.03 84.8571L365.998 87.1046C365.555 86.6168 364.963 86.1892 364.223 85.8164C363.484 85.4437 362.553 85.2573 361.419 85.2573C359.436 85.2573 358.45 85.8767 358.45 87.1101C358.45 87.6748 358.653 88.064 359.058 88.2777C359.463 88.4915 359.989 88.645 360.635 88.7492L363.122 89.1439C363.791 89.2425 364.432 89.3905 365.045 89.5824C365.659 89.7743 366.206 90.0429 366.683 90.3882C367.16 90.7336 367.537 91.1666 367.822 91.6929C368.107 92.2191 368.244 92.8659 368.244 93.6334C368.244 95.2505 367.625 96.5223 366.382 97.4432C365.138 98.3641 363.407 98.8246 361.183 98.8246L361.172 98.8136Z" fill="white"/>
<path d="M173.541 123.728H172.276V109.021H177.54C178.844 109.021 179.835 109.388 180.509 110.122C181.183 110.857 181.523 111.866 181.523 113.137C181.523 114.327 181.216 115.281 180.608 115.993C180 116.706 179.096 117.101 177.902 117.172H177.584L181.561 123.723H180.148L176.275 117.232H173.536V123.723L173.541 123.728ZM177.524 116.185C178.406 116.185 179.074 115.944 179.523 115.467C179.972 114.99 180.197 114.387 180.197 113.653V112.639C180.197 111.909 179.972 111.306 179.523 110.824C179.074 110.347 178.406 110.106 177.524 110.106H173.547V116.174H177.524V116.185Z" fill="white"/>
<path d="M185.187 122.676H189.274V113.91H185.187V112.858H190.473V122.676H194.286V123.728H185.193V122.676H185.187ZM189.86 109.952C189.482 109.952 189.208 109.87 189.049 109.711C188.89 109.552 188.808 109.35 188.808 109.114V108.84C188.808 108.599 188.89 108.401 189.049 108.237C189.208 108.072 189.482 107.996 189.86 107.996C190.238 107.996 190.512 108.078 190.671 108.237C190.829 108.396 190.912 108.599 190.912 108.84V109.114C190.912 109.355 190.829 109.552 190.671 109.711C190.512 109.87 190.238 109.952 189.86 109.952Z" fill="white"/>
<path d="M202.048 123.98C200.952 123.98 200.005 123.794 199.194 123.421C198.389 123.048 197.688 122.528 197.102 121.853L197.923 121.135C198.455 121.755 199.052 122.215 199.714 122.517C200.372 122.818 201.161 122.972 202.07 122.972C202.979 122.972 203.801 122.791 204.398 122.423C204.995 122.056 205.291 121.497 205.291 120.735C205.291 120.395 205.231 120.121 205.11 119.902C204.99 119.683 204.825 119.507 204.617 119.365C204.409 119.222 204.162 119.118 203.883 119.036C203.604 118.959 203.291 118.899 202.957 118.855L201.276 118.625C200.854 118.57 200.432 118.488 199.999 118.383C199.567 118.279 199.183 118.12 198.843 117.912C198.498 117.704 198.219 117.419 198 117.068C197.781 116.717 197.671 116.267 197.671 115.719C197.671 115.171 197.775 114.722 197.989 114.327C198.203 113.932 198.493 113.609 198.871 113.357C199.249 113.104 199.693 112.913 200.207 112.787C200.722 112.66 201.27 112.595 201.862 112.595C202.87 112.595 203.724 112.759 204.42 113.088C205.116 113.417 205.702 113.828 206.178 114.321L205.378 115.078C205.225 114.908 205.044 114.738 204.842 114.563C204.639 114.387 204.393 114.228 204.108 114.091C203.817 113.949 203.489 113.834 203.105 113.746C202.727 113.653 202.289 113.609 201.802 113.609C200.876 113.609 200.158 113.779 199.643 114.113C199.128 114.448 198.876 114.957 198.876 115.632C198.876 115.971 198.937 116.246 199.057 116.465C199.178 116.684 199.342 116.859 199.55 117.002C199.758 117.145 200.005 117.249 200.29 117.331C200.569 117.408 200.87 117.468 201.193 117.512L202.897 117.764C203.319 117.835 203.741 117.923 204.173 118.027C204.601 118.131 204.99 118.29 205.329 118.499C205.674 118.707 205.948 118.986 206.162 119.332C206.375 119.677 206.48 120.121 206.48 120.669C206.48 121.217 206.37 121.694 206.151 122.1C205.932 122.506 205.63 122.851 205.247 123.131C204.858 123.41 204.393 123.624 203.845 123.761C203.297 123.898 202.7 123.969 202.053 123.969L202.048 123.98Z" fill="white"/>
<path d="M214.493 123.728C213.902 123.728 213.475 123.569 213.201 123.257C212.927 122.944 212.79 122.517 212.79 121.985V113.91H208.939V112.858H211.99C212.297 112.858 212.516 112.792 212.642 112.666C212.768 112.54 212.834 112.321 212.834 112.014V109.021H213.989V112.852H219.166V113.905H213.989V122.67H219.166V123.723H214.493V123.728Z" fill="white"/>
<path d="M227.082 123.98C225.592 123.98 224.43 123.481 223.598 122.484C222.76 121.486 222.343 120.088 222.343 118.29C222.343 116.492 222.76 115.094 223.598 114.097C224.43 113.099 225.592 112.6 227.082 112.6C228.572 112.6 229.733 113.099 230.565 114.097C231.398 115.094 231.82 116.492 231.82 118.29C231.82 120.088 231.404 121.486 230.565 122.484C229.733 123.481 228.566 123.98 227.082 123.98ZM227.082 122.928C228.15 122.928 228.988 122.588 229.607 121.919C230.226 121.245 230.533 120.264 230.533 118.97V117.621C230.533 116.328 230.226 115.347 229.607 114.672C228.988 113.998 228.144 113.664 227.082 113.664C226.019 113.664 225.17 114.003 224.556 114.672C223.937 115.347 223.631 116.328 223.631 117.621V118.97C223.631 120.264 223.937 121.245 224.556 121.919C225.175 122.593 226.013 122.928 227.082 122.928Z" fill="white"/>
<path d="M235.041 122.676H238.453V113.91H235.041V112.858H239.653V115.347H239.735C239.976 114.59 240.382 113.987 240.968 113.532C241.548 113.083 242.321 112.858 243.274 112.858H245.147V114.036H242.918C241.937 114.036 241.149 114.327 240.551 114.908C239.954 115.489 239.659 116.273 239.659 117.249V122.67H244.079V123.723H235.046V122.67L235.041 122.676Z" fill="white"/>
<path d="M256.114 123.728C255.621 123.728 255.27 123.607 255.062 123.372C254.854 123.131 254.733 122.813 254.706 122.401V122.023H254.602C254.361 122.599 253.972 123.07 253.424 123.432C252.876 123.794 252.131 123.98 251.195 123.98C250.055 123.98 249.162 123.701 248.511 123.147C247.859 122.593 247.53 121.809 247.53 120.795C247.53 120.318 247.612 119.885 247.771 119.502C247.93 119.118 248.193 118.789 248.549 118.52C248.905 118.252 249.365 118.049 249.929 117.901C250.488 117.753 251.178 117.682 251.994 117.682H254.646V116.361C254.646 115.451 254.394 114.776 253.901 114.327C253.402 113.877 252.712 113.658 251.825 113.658C250.335 113.658 249.299 114.25 248.708 115.429L247.886 114.837C248.165 114.206 248.642 113.675 249.305 113.247C249.973 112.819 250.833 112.606 251.885 112.606C253.117 112.606 254.087 112.924 254.788 113.565C255.489 114.206 255.84 115.094 255.84 116.229V122.676H257.461V123.728H256.114ZM251.375 122.972C251.841 122.972 252.268 122.917 252.657 122.802C253.052 122.692 253.397 122.533 253.687 122.33C253.977 122.127 254.213 121.875 254.383 121.585C254.553 121.294 254.635 120.96 254.635 120.593V118.592H251.983C250.844 118.592 250.028 118.762 249.529 119.107C249.031 119.452 248.784 119.918 248.784 120.51V121.058C248.784 121.689 249.02 122.166 249.491 122.489C249.962 122.813 250.587 122.972 251.375 122.972Z" fill="white"/>
<path d="M260.956 123.728V112.858H262.156V114.546H262.238C262.446 114.042 262.802 113.592 263.301 113.198C263.799 112.803 264.506 112.606 265.415 112.606C266.593 112.606 267.507 112.962 268.165 113.669C268.817 114.376 269.145 115.396 269.145 116.711V123.728H267.946V116.909C267.946 115.785 267.705 114.957 267.217 114.437C266.735 113.916 266.028 113.658 265.103 113.658C264.725 113.658 264.358 113.707 264.007 113.806C263.657 113.905 263.344 114.053 263.07 114.25C262.797 114.448 262.577 114.7 262.408 115.001C262.238 115.303 262.156 115.659 262.156 116.065V123.728H260.956Z" fill="white"/>
<path d="M277.652 123.728C277.061 123.728 276.634 123.569 276.36 123.257C276.086 122.944 275.949 122.517 275.949 121.985V113.91H272.098V112.858H275.149C275.456 112.858 275.675 112.792 275.801 112.666C275.927 112.54 275.993 112.321 275.993 112.014V109.021H277.148V112.852H282.325V113.905H277.148V122.67H282.325V123.723H277.652V123.728Z" fill="white"/>
<path d="M290.41 123.98C288.893 123.98 287.704 123.487 286.844 122.495C285.979 121.503 285.551 120.11 285.551 118.312C285.551 117.413 285.661 116.607 285.891 115.9C286.116 115.193 286.433 114.596 286.85 114.108C287.266 113.625 287.764 113.252 288.356 112.989C288.948 112.732 289.599 112.6 290.311 112.6C291.024 112.6 291.692 112.732 292.267 112.989C292.842 113.247 293.33 113.62 293.73 114.097C294.13 114.574 294.436 115.144 294.644 115.802C294.853 116.459 294.962 117.194 294.962 117.994V118.52H286.817V119.047C286.817 120.214 287.134 121.152 287.764 121.859C288.394 122.566 289.282 122.922 290.416 122.922C291.215 122.922 291.9 122.741 292.47 122.374C293.039 122.007 293.478 121.47 293.784 120.752L294.688 121.322C294.365 122.122 293.839 122.763 293.111 123.251C292.382 123.739 291.484 123.98 290.416 123.98H290.41ZM290.306 113.62C289.775 113.62 289.293 113.713 288.865 113.905C288.438 114.097 288.071 114.36 287.77 114.694C287.469 115.034 287.233 115.44 287.063 115.917C286.893 116.394 286.811 116.92 286.811 117.495V117.621H293.675V117.451C293.675 116.273 293.379 115.336 292.782 114.65C292.185 113.965 291.363 113.62 290.306 113.62Z" fill="white"/>
</svg>
